# xmcd CD database file
#
# Track frame offsets:
#	150
#	18340
#	33775
#	62375
#	76055
#	93392
#	107540
#	127075
#	152215
#	166352
#	186575
#
# Disc length: 2760 seconds
#
# Revision: 0
# Processed by: cddbd v1.5PL3 Copyright (c) Steve Scherf et al.
# Submitted via: CDex 1.51
#
DISCID=810ac60b
DTITLE=Andrew ''B.B.'' Odom and The Gold Tops - Goin' to California
DYEAR=1992
DGENRE=Blues
TTITLE0=You Don't Have To Go
TTITLE1=Next Time You See Me
TTITLE2=Goin' to California
TTITLE3=Bad Feelin'
TTITLE4=Rock Me, Baby
TTITLE5=Come to Me
TTITLE6=Why Did You Leave Me?
TTITLE7=Feel So Bad
TTITLE8=Woke Up This Mornin'
TTITLE9=Don't Ever Leave Me All Alone
TTITLE10=Feel So Good
EXTD=YEAR: 1992
EXTT0=
EXTT1=
EXTT2=
EXTT3=
EXTT4=
EXTT5=
EXTT6=
EXTT7=
EXTT8=
EXTT9=
EXTT10=
PLAYORDER=
